<svg xmlns="http://www.w3.org/2000/svg" width="440" height="120" viewBox="0 0 440 120"><g transform="translate(88.32796930703523,16.50000000000001)translate(176.3999786376953,61.86458826065064)rotate(0)translate(-176.3999786376953,-61.86458826065064)" opacity="1"><path transform="translate(6,77.128)rotate(0)" d="M0.19-68.16L14.11-68.16L32.54-16.61L50.78-68.16L64.70-68.16L38.11 0L26.98 0L0.19-68.16ZM83.62 0L70.75 0L70.75-50.30L83.62-50.30L83.62 0ZM83.62-57.31L70.75-57.31L70.75-70.08L83.62-70.08L83.62-57.31ZM125.18-50.88L125.18-39.17L125.18-39.17Q119.33-39.07 114.72-36.91L114.72-36.91L114.72-36.91Q110.11-34.75 108.10-30.43L108.10-30.43L108.10 0L95.23 0L95.23-50.30L107.04-50.30L107.04-39.55L107.04-39.55Q108.38-42.14 110.21-44.21L110.21-44.21L110.21-44.21Q112.03-46.27 114.14-47.81L114.14-47.81L114.14-47.81Q116.26-49.34 118.42-50.16L118.42-50.16L118.42-50.16Q120.58-50.98 122.59-50.98L122.59-50.98L122.59-50.98Q123.65-50.98 124.18-50.98L124.18-50.98L124.18-50.98Q124.70-50.98 125.18-50.88L125.18-50.88ZM153.22 0.96L153.22 0.96L153.22 0.96Q148.03 0.96 143.62-1.06L143.62-1.06L143.62-1.06Q139.20-3.07 136.03-6.62L136.03-6.62L136.03-6.62Q132.86-10.18 131.09-14.93L131.09-14.93L131.09-14.93Q129.31-19.68 129.31-25.15L129.31-25.15L129.31-25.15Q129.31-30.62 130.99-35.33L130.99-35.33L130.99-35.33Q132.67-40.03 135.65-43.58L135.65-43.58L135.65-43.58Q138.62-47.14 142.75-49.15L142.75-49.15L142.75-49.15Q146.88-51.17 151.78-51.17L151.78-51.17L151.78-51.17Q157.34-51.17 161.81-48.48L161.81-48.48L161.81-48.48Q166.27-45.79 168.77-41.47L168.77-41.47L168.77-70.08L181.63-70.08L181.63-14.78L181.63-14.78Q181.63-12.77 182.30-11.90L182.30-11.90L182.30-11.90Q182.98-11.04 184.61-10.94L184.61-10.94L184.61 0L184.61 0Q181.25 0.67 179.14 0.67L179.14 0.67L179.14 0.67Q175.68 0.67 173.47-1.06L173.47-1.06L173.47-1.06Q171.26-2.78 170.98-5.57L170.98-5.57L170.69-8.74L170.69-8.74Q167.90-3.94 163.15-1.49L163.15-1.49L163.15-1.49Q158.40 0.96 153.22 0.96ZM156.58-9.98L156.58-9.98L156.58-9.98Q158.40-9.98 160.32-10.61L160.32-10.61L160.32-10.61Q162.24-11.23 163.87-12.38L163.87-12.38L163.87-12.38Q165.50-13.54 166.80-15.07L166.80-15.07L166.80-15.07Q168.10-16.61 168.77-18.43L168.77-18.43L168.77-30.43L168.77-30.43Q168-32.54 166.61-34.32L166.61-34.32L166.61-34.32Q165.22-36.10 163.44-37.39L163.44-37.39L163.44-37.39Q161.66-38.69 159.70-39.46L159.70-39.46L159.70-39.46Q157.73-40.22 155.81-40.22L155.81-40.22L155.81-40.22Q152.93-40.22 150.48-38.98L150.48-38.98L150.48-38.98Q148.03-37.73 146.30-35.57L146.30-35.57L146.30-35.57Q144.58-33.41 143.62-30.62L143.62-30.62L143.62-30.62Q142.66-27.84 142.66-24.86L142.66-24.86L142.66-24.86Q142.66-21.70 143.71-19.01L143.71-19.01L143.71-19.01Q144.77-16.32 146.59-14.30L146.59-14.30L146.59-14.30Q148.42-12.29 150.96-11.14L150.96-11.14L150.96-11.14Q153.50-9.98 156.58-9.98ZM207.17 0L194.30 0L194.30-50.30L207.17-50.30L207.17 0ZM207.17-57.31L194.30-57.31L194.30-70.08L207.17-70.08L207.17-57.31ZM237.79 0.96L237.79 0.96L237.79 0.96Q231.46 0.96 225.41-1.06L225.41-1.06L225.41-1.06Q219.36-3.07 215.04-6.82L215.04-6.82L219.84-14.88L219.84-14.88Q224.45-11.62 228.82-9.94L228.82-9.94L228.82-9.94Q233.18-8.26 237.50-8.26L237.50-8.26L237.50-8.26Q241.34-8.26 243.55-9.70L243.55-9.70L243.55-9.70Q245.76-11.14 245.76-13.82L245.76-13.82L245.76-13.82Q245.76-16.51 243.17-17.76L243.17-17.76L243.17-17.76Q240.58-19.01 234.72-20.64L234.72-20.64L234.72-20.64Q229.82-21.98 226.37-23.23L226.37-23.23L226.37-23.23Q222.91-24.48 220.80-26.06L220.80-26.06L220.80-26.06Q218.69-27.65 217.73-29.71L217.73-29.71L217.73-29.71Q216.77-31.78 216.77-34.66L216.77-34.66L216.77-34.66Q216.77-38.50 218.26-41.57L218.26-41.57L218.26-41.57Q219.74-44.64 222.43-46.80L222.43-46.80L222.43-46.80Q225.12-48.96 228.72-50.11L228.72-50.11L228.72-50.11Q232.32-51.26 236.54-51.26L236.54-51.26L236.54-51.26Q242.21-51.26 247.15-49.63L247.15-49.63L247.15-49.63Q252.10-48 256.22-44.35L256.22-44.35L251.04-36.58L251.04-36.58Q247.20-39.46 243.60-40.80L243.60-40.80L243.60-40.80Q240-42.14 236.45-42.14L236.45-42.14L236.45-42.14Q233.18-42.14 230.98-40.80L230.98-40.80L230.98-40.80Q228.77-39.46 228.77-36.48L228.77-36.48L228.77-36.48Q228.77-35.14 229.30-34.27L229.30-34.27L229.30-34.27Q229.82-33.41 230.98-32.74L230.98-32.74L230.98-32.74Q232.13-32.06 234-31.44L234-31.44L234-31.44Q235.87-30.82 238.66-30.14L238.66-30.14L238.66-30.14Q243.84-28.80 247.54-27.46L247.54-27.46L247.54-27.46Q251.23-26.11 253.58-24.38L253.58-24.38L253.58-24.38Q255.94-22.66 257.04-20.40L257.04-20.40L257.04-20.40Q258.14-18.14 258.14-14.98L258.14-14.98L258.14-14.98Q258.14-7.58 252.67-3.31L252.67-3.31L252.67-3.31Q247.20 0.96 237.79 0.96ZM279.36 0L266.50 0L266.50-50.30L279.36-50.30L279.36 0ZM279.36-57.31L266.50-57.31L266.50-70.08L279.36-70.08L279.36-57.31ZM314.21 0.96L314.21 0.96L314.21 0.96Q308.06 0.96 303.17-1.15L303.17-1.15L303.17-1.15Q298.27-3.26 294.86-6.86L294.86-6.86L294.86-6.86Q291.46-10.46 289.63-15.17L289.63-15.17L289.63-15.17Q287.81-19.87 287.81-25.06L287.81-25.06L287.81-25.06Q287.81-30.34 289.63-35.04L289.63-35.04L289.63-35.04Q291.46-39.74 294.86-43.34L294.86-43.34L294.86-43.34Q298.27-46.94 303.17-49.06L303.17-49.06L303.17-49.06Q308.06-51.17 314.21-51.17L314.21-51.17L314.21-51.17Q320.35-51.17 325.20-49.06L325.20-49.06L325.20-49.06Q330.05-46.94 333.46-43.34L333.46-43.34L333.46-43.34Q336.86-39.74 338.69-35.04L338.69-35.04L338.69-35.04Q340.51-30.34 340.51-25.06L340.51-25.06L340.51-25.06Q340.51-19.87 338.69-15.17L338.69-15.17L338.69-15.17Q336.86-10.46 333.50-6.86L333.50-6.86L333.50-6.86Q330.14-3.26 325.25-1.15L325.25-1.15L325.25-1.15Q320.35 0.96 314.21 0.96ZM301.06-25.06L301.06-25.06L301.06-25.06Q301.06-21.70 302.06-18.96L302.06-18.96L302.06-18.96Q303.07-16.22 304.85-14.21L304.85-14.21L304.85-14.21Q306.62-12.19 309.02-11.09L309.02-11.09L309.02-11.09Q311.42-9.98 314.21-9.98L314.21-9.98L314.21-9.98Q316.99-9.98 319.39-11.09L319.39-11.09L319.39-11.09Q321.79-12.19 323.57-14.21L323.57-14.21L323.57-14.21Q325.34-16.22 326.35-19.01L326.35-19.01L326.35-19.01Q327.36-21.79 327.36-25.15L327.36-25.15L327.36-25.15Q327.36-28.42 326.35-31.20L326.35-31.20L326.35-31.20Q325.34-33.98 323.57-36L323.57-36L323.57-36Q321.79-38.02 319.39-39.12L319.39-39.12L319.39-39.12Q316.99-40.22 314.21-40.22L314.21-40.22L314.21-40.22Q311.42-40.22 309.02-39.07L309.02-39.07L309.02-39.07Q306.62-37.92 304.85-35.90L304.85-35.90L304.85-35.90Q303.07-33.89 302.06-31.10L302.06-31.10L302.06-31.10Q301.06-28.32 301.06-25.06Z" fill="#ffffff"/></g><g transform="translate(8.541079257861952,1.3673469387755395)translate(40.010101010101025,58.24999999999999)rotate(0)translate(-40.010101010101025,-58.24999999999999) scale(0.5888254574769464,0.5888254574769464)" opacity="1"><defs class="defs"><linearGradient id="linearGradientd6b9ad6737319cf7b43c09784d581ab5" class="linearGradient1" gradientTransform="translate(0.5,0.5) rotate(200) translate(-0.5,-0.5)" x1="50%" y1="0%" x2="50%" y2="100%"><stop id="stop1" offset="0%" class="linearGradientColor1" stop-color="#2b8c2a"/><stop id="stop2" offset="100%" class="linearGradientColor2" stop-color="#8dc321"/></linearGradient></defs><path fill="url(#linearGradientd6b9ad6737319cf7b43c09784d581ab5)" d="M67.949,0c0,0-144.776,131.315-11.676,193.505v-34.966l-23.819-25.28c-1.075,0.467-2.261,0.729-3.504,0.729&#xA;&#9;c-4.879,0-8.848-3.971-8.848-8.85s3.969-8.849,8.848-8.849c4.878,0,8.848,3.97,8.848,8.849c0,2.02-0.688,3.877-1.831,5.368&#xA;&#9;l15.129,16.052v-21.416l-15.604-17.449c-0.84,0.266-1.73,0.408-2.655,0.408c-4.878,0-8.849-3.969-8.849-8.848&#xA;&#9;s3.97-8.849,8.849-8.849s8.847,3.97,8.847,8.849c0,2.329-0.911,4.444-2.388,6.025l16.244,18.156v27.84l5.178,5.5v38.742&#xA;&#9;c1.558,0.678,3.159,1.346,4.789,2.008v-81.289l-15.231-15.231v-22.65c-3.804-0.989-6.625-4.443-6.625-8.554&#xA;&#9;c0-4.878,3.97-8.848,8.848-8.848c4.879,0,8.848,3.97,8.848,8.848c0,4.11-2.821,7.564-6.626,8.554v20.809l10.787,10.788V60.376&#xA;&#9;c-3.453-1.207-5.94-4.488-5.94-8.347c0-4.879,3.971-8.848,8.85-8.848c4.878,0,8.846,3.969,8.846,8.848&#xA;&#9;c0,4.354-3.163,7.975-7.311,8.705v74.367l11.396-14.463V88.325c-3.804-0.99-6.624-4.443-6.624-8.553&#xA;&#9;c0-4.879,3.969-8.849,8.846-8.849c4.88,0,8.851,3.97,8.851,8.849c0,4.109-2.822,7.563-6.627,8.553v33.852l-15.84,20.104v55.421&#xA;&#9;c1.668-0.672,3.311-1.35,4.903-2.041v-37.813l21.935-30.156v-16.172c-3.806-0.989-6.626-4.444-6.626-8.556&#xA;&#9;c0-4.878,3.97-8.847,8.848-8.847c4.879,0,8.849,3.969,8.849,8.847c0,4.11-2.82,7.563-6.626,8.556v17.616l-10.818,14.876h10.067&#xA;&#9;l6.128-8.673c-1.27-1.532-2.033-3.496-2.033-5.637c0-4.879,3.97-8.849,8.849-8.849c4.878,0,8.848,3.97,8.848,8.849&#xA;&#9;c0,4.878-3.97,8.847-8.848,8.847c-1.133,0-2.213-0.222-3.209-0.611l-7.429,10.519H87.181L79.3,159.293v34.364&#xA;&#9;C212.961,131.528,67.949,0,67.949,0z M56.998,69.8c0,2.485-2.015,4.5-4.5,4.5s-4.5-2.015-4.5-4.5s2.015-4.5,4.5-4.5&#xA;&#9;S56.998,67.314,56.998,69.8z M68.414,47.53c-2.485,0-4.5,2.015-4.5,4.5c0,2.485,2.015,4.5,4.5,4.5s4.5-2.015,4.5-4.5&#xA;&#9;C72.914,49.545,70.9,47.53,68.414,47.53z M83.57,75.272c-2.484,0-4.5,2.015-4.5,4.5s2.016,4.5,4.5,4.5c2.485,0,4.5-2.015,4.5-4.5&#xA;&#9;S86.055,75.272,83.57,75.272z M99.011,98.465c-2.485,0-4.5,2.015-4.5,4.5s2.015,4.5,4.5,4.5s4.5-2.015,4.5-4.5&#xA;&#9;S101.496,98.465,99.011,98.465z M113.423,125.203c-2.485,0-4.5,2.015-4.5,4.5s2.015,4.5,4.5,4.5s4.5-2.015,4.5-4.5&#xA;&#9;S115.908,125.203,113.423,125.203z M29.043,120.638c-2.485,0-4.5,2.014-4.5,4.5c0,2.484,2.015,4.499,4.5,4.499s4.5-2.015,4.5-4.499&#xA;&#9;C33.543,122.651,31.529,120.638,29.043,120.638z M32.836,94.753c-2.485,0-4.5,2.015-4.5,4.5s2.015,4.5,4.5,4.5s4.5-2.015,4.5-4.5&#xA;&#9;S35.322,94.753,32.836,94.753z" class="color c1"/></g></svg>